<svg id="Capa_1" data-name="Capa 1" xmlns="http://www.w3.org/2000/svg" xmlns:xlink="http://www.w3.org/1999/xlink" viewBox="0 0 283.46 283.46"><defs><style>.cls-1{fill:#fff;}.cls-2{fill:url(#Degradado_sin_nombre_3);}</style><linearGradient id="Degradado_sin_nombre_3" x1="26.16" y1="141.28" x2="257.79" y2="141.28" gradientUnits="userSpaceOnUse"><stop offset="0" stop-color="#ff5f57"/><stop offset="1" stop-color="#9f27c0"/></linearGradient></defs><title>Lyrics</title><path class="cls-1" d="M154.61,55.3a2.31,2.31,0,0,0-.59,0,6.28,6.28,0,0,0-2.23.7c-1.59.87-2.55,2.47-2.93,5q-6,40.05-11.93,80.12c-.92,6.14-1.85,12.29-2.8,18.62a36.79,36.79,0,0,0-6.73-4.07c-14.54-6-28.56-5-41.79,3.55-6.7,4.34-11.84,10.2-14.14,18.07-4.54,15.52,3.76,28.95,17.89,34.78,10.8,4.46,21.7,4.31,32.63,0,12.88-5.09,21.33-13.78,23.42-27.83q7.54-50.81,15.1-101.6c2,6.3,7.56,31.85,8,34.11,1.55,5.87,2.8,11.31,6.17,16.2a26.18,26.18,0,0,0,11.83,9.71c.38.15.94.57,1.22,0s-.41-.64-.71-.87a20.17,20.17,0,0,1-6.4-8.22,46.21,46.21,0,0,1-3.19-10.9q-2.38-14.32-4.69-28.66Q171.64,87,170.5,80c-.12-.71-.24-1.43-.37-2.14-.18-1-.37-2.07-.58-3.1-.32-1.52-.67-3-1.12-4.52a18.55,18.55,0,0,0-4.24-8,27.11,27.11,0,0,0-3.75-2.89l-.52-.38c-1.93-1.4-3.39-2.46-4.86-3.51A1.34,1.34,0,0,0,154.61,55.3Zm-65.41,117c4.53-3.88,9.52-6.68,15.56-7.42,8.79-1.14,17,.2,23.7,6.55,5.23,4.94,5.92,12.69,1.87,19-8.23,12.85-28.34,16-40.07,8C80.24,191.6,80.58,179.68,89.2,172.29Z"/><path class="cls-1" d="M169.33,65.57c-.24-.18-.53-.53-.84-.23s0,.65.23.93l.26.33a24.09,24.09,0,0,1,6,12.46c.11.7.23,1.4.34,2.11.1.55.18,1.09.28,1.64q1.33,8.09,2.65,16.17l2,12.27c.23,1.43.46,2.86.68,4.29.47,3,.95,5.94,1.5,8.9.12.62.23,1.24.35,1.87,1.33,6.51,3.64,12.64,8.32,17.58a16.13,16.13,0,0,0,12.45,5.45c.35,0,.85.1.95-.36s-.44-.5-.76-.58c-3.78-1-6.38-3.42-8.34-6.67a36.89,36.89,0,0,1-4.47-13.2c-.28-1.67-.54-3.35-.82-5-.24-1.51-.49-3-.73-4.54-.48-3-1-5.9-1.44-8.85q-1.56-9.68-3.14-19.34c0-.16-.05-.32-.08-.48-.05-.36-.12-.72-.18-1.07-.38-2.25-.8-4.49-1.31-6.7-.85-3.62-2-7.15-4.58-10"/><path class="cls-1" d="M221.71,149.59c-.18-.59-.79-.24-1.21-.18a9.94,9.94,0,0,1-8.6-2.55,19,19,0,0,1-5.74-11.05c0-.13,0-.26-.07-.39l-.27-1.7c-.16-.95-.31-1.89-.46-2.84L203.92,122q-1.56-9.68-3.14-19.34c0-.16-.05-.32-.08-.48s0-.21,0-.32-.09-.5-.13-.75c-.38-2.24-.8-4.48-1.31-6.7a23,23,0,0,0-3.84-9.09c-.24-.3-.48-.6-.74-.88l-9.32-7c-.17-.12-.36-.32-.56-.34a.35.35,0,0,0-.28.12s0,0,0,0h0a.28.28,0,0,0-.08.12v0a.3.3,0,0,0,0,.1v.09c.05.19.26.36.39.53l.08.1a2,2,0,0,0,.18.23A23.14,23.14,0,0,1,187,81.12,24.35,24.35,0,0,1,191,91v.1c.12.67.22,1.34.34,2l.27,1.65c.52,3.14,1,6.29,1.55,9.43s1,6.29,1.5,9.43q.67,4.26,1.37,8.52l1.89,11.71c.16,1,.37,2,.62,3a23.11,23.11,0,0,0,4.35,9.07,16.13,16.13,0,0,0,7.1,5,13.77,13.77,0,0,0,10.84-.47C221.17,150.25,221.87,150.15,221.71,149.59Z"/><circle class="cls-2" cx="141.98" cy="141.28" r="115.81"/><path class="cls-1" d="M187.3,141.75a20.09,20.09,0,0,1-6.4-8.22,46.23,46.23,0,0,1-3.2-10.9c-1.59-9.55-3.13-19.1-4.68-28.66Q171.9,87,170.76,80c-.12-.71-.25-1.43-.37-2.14-.18-1-.37-2.07-.58-3.1-.32-1.52-.68-3-1.13-4.52a18.55,18.55,0,0,0-4.24-8,26.52,26.52,0,0,0-3.75-2.89l-.52-.38-4.85-3.51a1.46,1.46,0,0,0-.45-.19,2.31,2.31,0,0,0-.59,0,6.28,6.28,0,0,0-2.23.7c-1.59.87-2.55,2.47-2.93,5q-6,40.05-11.94,80.12c-.91,6.14-1.84,12.29-2.8,18.62a36.72,36.72,0,0,0-6.72-4.07c-14.54-6-28.57-5-41.79,3.55-6.7,4.34-11.84,10.2-14.15,18.07-4.54,15.52,3.77,28.95,17.89,34.78,10.81,4.46,21.71,4.31,32.64,0,12.88-5.09,21.33-13.78,23.42-27.83q7.54-50.81,15.1-101.6c2,6.3,7.56,31.85,8,34.11,1.55,5.87,2.8,11.31,6.18,16.2a26.13,26.13,0,0,0,11.83,9.71c.37.15.94.57,1.22,0S187.6,142,187.3,141.75ZM110.78,198c-11.16,2.25-21.45-2.09-23-9.69s6.27-15.59,17.44-17.84,21.45,2.09,23,9.69S121.94,195.76,110.78,198Z"/><path class="cls-1" d="M204,148.4c-3.78-1-6.37-3.42-8.33-6.67a36.89,36.89,0,0,1-4.47-13.2c-.28-1.67-.54-3.35-.82-5-.25-1.51-.49-3-.74-4.54q-.72-4.43-1.43-8.85-1.57-9.68-3.14-19.34c0-.16-.05-.32-.08-.48-.06-.36-.13-.72-.19-1.07-.38-2.25-.79-4.49-1.31-6.7-.84-3.62-2-7.15-4.57-10l-9.32-7c-.24-.18-.53-.53-.85-.23s0,.65.24.93a3.75,3.75,0,0,0,.26.33,24,24,0,0,1,6,12.46c.12.7.24,1.4.35,2.11l.27,1.64Q177.19,90.9,178.5,99c.67,4.09,1.33,8.18,2,12.27.23,1.43.46,2.86.68,4.29.47,3,.94,5.94,1.5,8.9.12.62.23,1.24.35,1.87,1.32,6.51,3.64,12.64,8.32,17.58a16.12,16.12,0,0,0,12.45,5.45c.35,0,.85.1.94-.36S204.32,148.48,204,148.4Z"/><path class="cls-1" d="M222,149.59c-.17-.59-.78-.24-1.2-.18a9.93,9.93,0,0,1-8.6-2.55,19.06,19.06,0,0,1-5.75-11.05l-.06-.39-.27-1.7c-.16-.95-.31-1.89-.46-2.84q-.74-4.42-1.44-8.85-1.58-9.68-3.14-19.34c0-.16,0-.32-.08-.48s0-.21-.05-.32-.09-.5-.13-.75c-.38-2.24-.8-4.48-1.32-6.7a22.72,22.72,0,0,0-3.84-9.09c-.23-.3-.47-.6-.73-.88l-9.32-7c-.17-.12-.36-.32-.56-.34a.34.34,0,0,0-.28.12.1.1,0,0,0,0,0h0a.47.47,0,0,0-.09.12v0a.29.29,0,0,0,0,.1.17.17,0,0,0,0,.07v0c.05.19.26.36.39.53a.39.39,0,0,0,.08.1,2,2,0,0,0,.18.23,23.14,23.14,0,0,1,2.06,2.61A24.35,24.35,0,0,1,191.21,91v.1l.33,2c.1.55.18,1.1.27,1.65.53,3.14,1,6.29,1.56,9.43s1,6.29,1.49,9.43l1.38,8.52,1.89,11.71c.16,1,.37,2,.62,3a23.11,23.11,0,0,0,4.35,9.07,16.13,16.13,0,0,0,7.1,5,13.77,13.77,0,0,0,10.84-.47C221.43,150.25,222.13,150.15,222,149.59Z"/></svg>